<svg xmlns="http://www.w3.org/2000/svg" width="32" height="32" fill="none" viewBox="0 0 32 32" id="superhero">
  <path fill="url(#paint0_radial_4002_939)" d="M2.0625 29.9235C2.0625 27.9547 2.45351 23.1641 5.27885 20.0641C8.81052 16.1891 13.7927 15.611 16 15.611C18.2073 15.611 23.1895 16.1891 26.7212 20.0641C29.5465 23.1641 29.9375 27.9547 29.9375 29.9235H2.0625Z"></path>
  <path fill="url(#paint1_radial_4002_939)" d="M2.0625 29.9235C2.0625 27.9547 2.45351 23.1641 5.27885 20.0641C8.81052 16.1891 13.7927 15.611 16 15.611C18.2073 15.611 23.1895 16.1891 26.7212 20.0641C29.5465 23.1641 29.9375 27.9547 29.9375 29.9235H2.0625Z"></path>
  <g filter="url(#filter0_f_4002_939)">
    <path fill="url(#paint2_linear_4002_939)" d="M3.34375 29.9235C3.34375 28.0364 3.69881 23.4445 6.26442 20.4731C9.47144 16.7589 13.9956 16.2047 16 16.2047C18.0044 16.2047 22.5286 16.7589 25.7356 20.4731C28.3012 23.4445 28.6563 28.0364 28.6563 29.9235H3.34375Z"></path>
  </g>
  <path fill="url(#paint3_radial_4002_939)" d="M16.0312 15.6067C9.80348 15.6067 4.44744 19.7942 4.03906 29.888V29.9235H28.0234V29.888C27.6151 19.7942 22.259 15.6067 16.0312 15.6067Z"></path>
  <path fill="url(#paint4_radial_4002_939)" d="M16.0312 15.6067C9.80348 15.6067 4.44744 19.7942 4.03906 29.888V29.9235H28.0234V29.888C27.6151 19.7942 22.259 15.6067 16.0312 15.6067Z"></path>
  <path fill="#4E9EFF" d="M23.6797 18.4361V29.9235H28.0234V29.8879C27.803 24.4404 26.1416 20.7132 23.6797 18.4361Z"></path>
  <path fill="url(#paint5_linear_4002_939)" d="M23.6797 18.4361V29.9235H28.0234V29.8879C27.803 24.4404 26.1416 20.7132 23.6797 18.4361Z"></path>
  <path fill="url(#paint6_radial_4002_939)" d="M23.6797 18.4361V29.9235H28.0234V29.8879C27.803 24.4404 26.1416 20.7132 23.6797 18.4361Z"></path>
  <path fill="url(#paint7_radial_4002_939)" d="M23.6797 18.4361V29.9235H28.0234V29.8879C27.803 24.4404 26.1416 20.7132 23.6797 18.4361Z"></path>
  <path fill="url(#paint8_linear_4002_939)" d="M8.38281 18.4361V29.9235H4.03906V29.8879C4.25946 24.4404 5.92095 20.7132 8.38281 18.4361Z"></path>
  <path fill="url(#paint9_radial_4002_939)" d="M8.38281 18.4361V29.9235H4.03906V29.8879C4.25946 24.4404 5.92095 20.7132 8.38281 18.4361Z"></path>
  <path fill="url(#paint10_radial_4002_939)" d="M8.38281 18.4361V29.9235H4.03906V29.8879C4.25946 24.4404 5.92095 20.7132 8.38281 18.4361Z"></path>
  <path fill="url(#paint11_radial_4002_939)" d="M8.38281 18.4361V29.9235H4.03906V29.8879C4.25946 24.4404 5.92095 20.7132 8.38281 18.4361Z"></path>
  <g filter="url(#filter1_f_4002_939)">
    <path fill="#2F63D5" d="M12.8747 23.388C12.1903 23.388 11.7652 24.1318 12.1125 24.7215L14.2553 28.3595C14.8315 29.3378 16.2465 29.3378 16.8227 28.3595L18.9655 24.7215C19.3129 24.1318 18.8877 23.388 18.2033 23.388H12.8747Z"></path>
  </g>
  <g filter="url(#filter2_iii_4002_939)">
    <path fill="url(#paint12_linear_4002_939)" d="M13.1309 22.9661C12.3959 22.9661 11.9393 23.7649 12.3123 24.3982L14.6136 28.3052C15.2324 29.3558 16.752 29.3558 17.3708 28.3052L19.6721 24.3982C20.0451 23.7649 19.5885 22.9661 18.8535 22.9661H13.1309Z"></path>
    <path fill="url(#paint13_linear_4002_939)" d="M13.1309 22.9661C12.3959 22.9661 11.9393 23.7649 12.3123 24.3982L14.6136 28.3052C15.2324 29.3558 16.752 29.3558 17.3708 28.3052L19.6721 24.3982C20.0451 23.7649 19.5885 22.9661 18.8535 22.9661H13.1309Z"></path>
  </g>
  <path fill="url(#paint14_radial_4002_939)" d="M13.1309 22.9661C12.3959 22.9661 11.9393 23.7649 12.3123 24.3982L14.6136 28.3052C15.2324 29.3558 16.752 29.3558 17.3708 28.3052L19.6721 24.3982C20.0451 23.7649 19.5885 22.9661 18.8535 22.9661H13.1309Z"></path>
  <g filter="url(#filter3_f_4002_939)">
    <ellipse cx="15.708" cy="20.232" fill="#2F62B7" rx="1.048" ry="1.055"></ellipse>
  </g>
  <g filter="url(#filter4_i_4002_939)">
    <path fill="url(#paint15_linear_4002_939)" d="M15.9922 20.4036L10.9526 17.3802C10.6287 17.1809 10.2891 16.8684 10.2891 16.3997C10.2891 15.9036 10.8736 15.8671 11.1738 15.8567L15.9922 15.7786L20.8106 15.8567C21.1108 15.8671 21.6953 15.9036 21.6953 16.3997C21.6953 16.8684 21.3557 17.1809 21.0318 17.3802L15.9922 20.4036Z"></path>
    <path fill="url(#paint16_radial_4002_939)" d="M15.9922 20.4036L10.9526 17.3802C10.6287 17.1809 10.2891 16.8684 10.2891 16.3997C10.2891 15.9036 10.8736 15.8671 11.1738 15.8567L15.9922 15.7786L20.8106 15.8567C21.1108 15.8671 21.6953 15.9036 21.6953 16.3997C21.6953 16.8684 21.3557 17.1809 21.0318 17.3802L15.9922 20.4036Z"></path>
    <path fill="url(#paint17_radial_4002_939)" d="M15.9922 20.4036L10.9526 17.3802C10.6287 17.1809 10.2891 16.8684 10.2891 16.3997C10.2891 15.9036 10.8736 15.8671 11.1738 15.8567L15.9922 15.7786L20.8106 15.8567C21.1108 15.8671 21.6953 15.9036 21.6953 16.3997C21.6953 16.8684 21.3557 17.1809 21.0318 17.3802L15.9922 20.4036Z"></path>
  </g>
  <ellipse cx="15.992" cy="20.138" fill="url(#paint18_radial_4002_939)" rx="1.048" ry="1.055"></ellipse>
  <ellipse cx="15.992" cy="20.138" fill="url(#paint19_radial_4002_939)" rx="1.048" ry="1.055"></ellipse>
  <rect width="4.109" height="5.399" x="13.933" y="13.267" fill="url(#paint20_radial_4002_939)" rx="2.055"></rect>
  <g filter="url(#filter5_i_4002_939)">
    <circle cx="11.257" cy="10.71" r="1.676" fill="url(#paint21_radial_4002_939)"></circle>
  </g>
  <g filter="url(#filter6_f_4002_939)">
    <circle cx="11.257" cy="10.71" r=".999" fill="url(#paint22_linear_4002_939)"></circle>
  </g>
  <g filter="url(#filter7_i_4002_939)">
    <circle cx="20.805" cy="10.71" r="1.676" fill="url(#paint23_linear_4002_939)"></circle>
    <circle cx="20.805" cy="10.71" r="1.676" fill="url(#paint24_radial_4002_939)"></circle>
  </g>
  <g filter="url(#filter8_f_4002_939)">
    <circle cx="20.805" cy="10.71" r=".999" fill="#E4AF9A"></circle>
    <circle cx="20.805" cy="10.71" r=".999" fill="url(#paint25_radial_4002_939)"></circle>
    <circle cx="20.805" cy="10.71" r=".999" fill="url(#paint26_radial_4002_939)"></circle>
  </g>
  <g filter="url(#filter9_i_4002_939)">
    <path fill="url(#paint27_linear_4002_939)" d="M10.8455 8.65089C10.8455 8.38323 10.9531 8.06204 11.1685 7.90145L11.33 7.74086C11.5992 7.52673 11.7069 7.20554 11.7069 6.88436V6.02786C11.7069 5.76021 11.8684 5.54608 12.1376 5.49255C12.7836 5.33196 14.1296 5.0643 16.0677 5.0643C18.0059 5.0643 19.3518 5.33196 19.9979 5.49255C20.2132 5.54608 20.4286 5.76021 20.4286 6.02786V6.88436C20.4286 7.20554 20.5901 7.52673 20.8054 7.74086C21.3094 8.09398 21.278 8.28821 21.2361 8.70442C21.1823 9.23973 21.1285 10.1498 21.1285 10.1498C21.1346 10.1498 21.1406 10.1497 21.1466 10.1495L20.8798 14.1226C20.7187 15.8987 19.3224 17.1367 17.6576 17.1367H14.4353C12.7168 17.1367 11.3742 15.8987 11.2131 14.1226C11.0731 12.2994 11.0119 10.4709 10.8455 8.65089Z"></path>
    <path fill="url(#paint28_radial_4002_939)" d="M10.8455 8.65089C10.8455 8.38323 10.9531 8.06204 11.1685 7.90145L11.33 7.74086C11.5992 7.52673 11.7069 7.20554 11.7069 6.88436V6.02786C11.7069 5.76021 11.8684 5.54608 12.1376 5.49255C12.7836 5.33196 14.1296 5.0643 16.0677 5.0643C18.0059 5.0643 19.3518 5.33196 19.9979 5.49255C20.2132 5.54608 20.4286 5.76021 20.4286 6.02786V6.88436C20.4286 7.20554 20.5901 7.52673 20.8054 7.74086C21.3094 8.09398 21.278 8.28821 21.2361 8.70442C21.1823 9.23973 21.1285 10.1498 21.1285 10.1498C21.1346 10.1498 21.1406 10.1497 21.1466 10.1495L20.8798 14.1226C20.7187 15.8987 19.3224 17.1367 17.6576 17.1367H14.4353C12.7168 17.1367 11.3742 15.8987 11.2131 14.1226C11.0731 12.2994 11.0119 10.4709 10.8455 8.65089Z"></path>
    <path fill="url(#paint29_linear_4002_939)" d="M10.8455 8.65089C10.8455 8.38323 10.9531 8.06204 11.1685 7.90145L11.33 7.74086C11.5992 7.52673 11.7069 7.20554 11.7069 6.88436V6.02786C11.7069 5.76021 11.8684 5.54608 12.1376 5.49255C12.7836 5.33196 14.1296 5.0643 16.0677 5.0643C18.0059 5.0643 19.3518 5.33196 19.9979 5.49255C20.2132 5.54608 20.4286 5.76021 20.4286 6.02786V6.88436C20.4286 7.20554 20.5901 7.52673 20.8054 7.74086C21.3094 8.09398 21.278 8.28821 21.2361 8.70442C21.1823 9.23973 21.1285 10.1498 21.1285 10.1498C21.1346 10.1498 21.1406 10.1497 21.1466 10.1495L20.8798 14.1226C20.7187 15.8987 19.3224 17.1367 17.6576 17.1367H14.4353C12.7168 17.1367 11.3742 15.8987 11.2131 14.1226C11.0731 12.2994 11.0119 10.4709 10.8455 8.65089Z"></path>
    <path fill="url(#paint30_linear_4002_939)" d="M10.8455 8.65089C10.8455 8.38323 10.9531 8.06204 11.1685 7.90145L11.33 7.74086C11.5992 7.52673 11.7069 7.20554 11.7069 6.88436V6.02786C11.7069 5.76021 11.8684 5.54608 12.1376 5.49255C12.7836 5.33196 14.1296 5.0643 16.0677 5.0643C18.0059 5.0643 19.3518 5.33196 19.9979 5.49255C20.2132 5.54608 20.4286 5.76021 20.4286 6.02786V6.88436C20.4286 7.20554 20.5901 7.52673 20.8054 7.74086C21.3094 8.09398 21.278 8.28821 21.2361 8.70442C21.1823 9.23973 21.1285 10.1498 21.1285 10.1498C21.1346 10.1498 21.1406 10.1497 21.1466 10.1495L20.8798 14.1226C20.7187 15.8987 19.3224 17.1367 17.6576 17.1367H14.4353C12.7168 17.1367 11.3742 15.8987 11.2131 14.1226C11.0731 12.2994 11.0119 10.4709 10.8455 8.65089Z"></path>
    <path fill="url(#paint31_radial_4002_939)" d="M10.8455 8.65089C10.8455 8.38323 10.9531 8.06204 11.1685 7.90145L11.33 7.74086C11.5992 7.52673 11.7069 7.20554 11.7069 6.88436V6.02786C11.7069 5.76021 11.8684 5.54608 12.1376 5.49255C12.7836 5.33196 14.1296 5.0643 16.0677 5.0643C18.0059 5.0643 19.3518 5.33196 19.9979 5.49255C20.2132 5.54608 20.4286 5.76021 20.4286 6.02786V6.88436C20.4286 7.20554 20.5901 7.52673 20.8054 7.74086C21.3094 8.09398 21.278 8.28821 21.2361 8.70442C21.1823 9.23973 21.1285 10.1498 21.1285 10.1498C21.1346 10.1498 21.1406 10.1497 21.1466 10.1495L20.8798 14.1226C20.7187 15.8987 19.3224 17.1367 17.6576 17.1367H14.4353C12.7168 17.1367 11.3742 15.8987 11.2131 14.1226C11.0731 12.2994 11.0119 10.4709 10.8455 8.65089Z"></path>
    <path fill="url(#paint32_radial_4002_939)" d="M10.8455 8.65089C10.8455 8.38323 10.9531 8.06204 11.1685 7.90145L11.33 7.74086C11.5992 7.52673 11.7069 7.20554 11.7069 6.88436V6.02786C11.7069 5.76021 11.8684 5.54608 12.1376 5.49255C12.7836 5.33196 14.1296 5.0643 16.0677 5.0643C18.0059 5.0643 19.3518 5.33196 19.9979 5.49255C20.2132 5.54608 20.4286 5.76021 20.4286 6.02786V6.88436C20.4286 7.20554 20.5901 7.52673 20.8054 7.74086C21.3094 8.09398 21.278 8.28821 21.2361 8.70442C21.1823 9.23973 21.1285 10.1498 21.1285 10.1498C21.1346 10.1498 21.1406 10.1497 21.1466 10.1495L20.8798 14.1226C20.7187 15.8987 19.3224 17.1367 17.6576 17.1367H14.4353C12.7168 17.1367 11.3742 15.8987 11.2131 14.1226C11.0731 12.2994 11.0119 10.4709 10.8455 8.65089Z"></path>
  </g>
  <g filter="url(#filter10_f_4002_939)">
    <path fill="#D89992" d="M15.7462 10.5869L14.9228 12.2928C14.8207 12.6437 15.0657 12.9946 15.4127 12.9946H16.1526C16.4996 12.9946 16.7446 12.6383 16.6425 12.2928L16.1424 10.5869C16.0352 10.209 15.8584 10.209 15.7462 10.5869Z"></path>
  </g>
  <path fill="url(#paint33_linear_4002_939)" d="M10.812 9.02467C10.8118 9.03186 10.8118 9.03902 10.8118 9.04614C10.8928 9.93231 10.9489 10.8205 11.0013 11.709H11.3614C11.549 11.709 11.7268 11.7494 11.8947 11.8301L12.1416 11.9512C12.2304 11.9916 12.3193 12.032 12.4082 12.0622L12.6254 12.1329C13.0501 12.2641 13.5043 12.2742 13.929 12.1531L14.2055 12.0723C14.3141 12.0421 14.4228 12.0017 14.5215 11.9512L14.7486 11.8402C14.9165 11.7595 15.0943 11.7191 15.2819 11.7191H15.7279L15.9154 11.2927C15.9871 11.0544 15.9915 10.8945 16.0102 10.8928C16.0223 10.8917 16.0405 10.9578 16.0872 11.113L16.2669 11.7191H16.7336C16.9212 11.7191 17.099 11.7595 17.2668 11.8402L17.4742 11.9411C17.5829 11.9916 17.7014 12.0421 17.8199 12.0723L18.126 12.1632C18.5506 12.2843 19.0148 12.2742 19.4295 12.1228L19.6073 12.0622L19.8443 11.9714L20.1109 11.8503C20.2788 11.7696 20.4566 11.7292 20.6442 11.7292H21.0375C21.0964 10.8526 21.1186 9.97415 21.2065 9.09969L21.2092 9.07344C21.2102 9.06379 21.2111 9.05426 21.2121 9.04485H20.743C20.4961 9.02467 20.2492 8.94393 20.0319 8.80265L19.9826 8.77237C19.8147 8.65128 19.6271 8.56045 19.4295 8.48981C19.0049 8.33843 18.5506 8.32834 18.126 8.44944L17.9976 8.47972C17.7606 8.55036 17.5335 8.65128 17.3261 8.80265C17.1187 8.95403 16.8718 9.02467 16.6151 9.02467H15.3905C15.1338 9.02467 14.8869 8.94393 14.6795 8.80265L14.6696 8.79256C14.4721 8.65128 14.2549 8.55036 14.0277 8.47972L13.9389 8.44944C13.5142 8.32834 13.06 8.32834 12.6353 8.46962L12.5958 8.47972C12.3884 8.55036 12.1909 8.65128 12.0033 8.77237C11.7512 8.96457 11.496 9.02467 11.2528 9.02467H10.812Z"></path>
  <path fill="url(#paint34_linear_4002_939)" d="M10.812 9.02467C10.8118 9.03186 10.8118 9.03902 10.8118 9.04614C10.8928 9.93231 10.9489 10.8205 11.0013 11.709H11.3614C11.549 11.709 11.7268 11.7494 11.8947 11.8301L12.1416 11.9512C12.2304 11.9916 12.3193 12.032 12.4082 12.0622L12.6254 12.1329C13.0501 12.2641 13.5043 12.2742 13.929 12.1531L14.2055 12.0723C14.3141 12.0421 14.4228 12.0017 14.5215 11.9512L14.7486 11.8402C14.9165 11.7595 15.0943 11.7191 15.2819 11.7191H15.7279L15.9154 11.2927C15.9871 11.0544 15.9915 10.8945 16.0102 10.8928C16.0223 10.8917 16.0405 10.9578 16.0872 11.113L16.2669 11.7191H16.7336C16.9212 11.7191 17.099 11.7595 17.2668 11.8402L17.4742 11.9411C17.5829 11.9916 17.7014 12.0421 17.8199 12.0723L18.126 12.1632C18.5506 12.2843 19.0148 12.2742 19.4295 12.1228L19.6073 12.0622L19.8443 11.9714L20.1109 11.8503C20.2788 11.7696 20.4566 11.7292 20.6442 11.7292H21.0375C21.0964 10.8526 21.1186 9.97415 21.2065 9.09969L21.2092 9.07344C21.2102 9.06379 21.2111 9.05426 21.2121 9.04485H20.743C20.4961 9.02467 20.2492 8.94393 20.0319 8.80265L19.9826 8.77237C19.8147 8.65128 19.6271 8.56045 19.4295 8.48981C19.0049 8.33843 18.5506 8.32834 18.126 8.44944L17.9976 8.47972C17.7606 8.55036 17.5335 8.65128 17.3261 8.80265C17.1187 8.95403 16.8718 9.02467 16.6151 9.02467H15.3905C15.1338 9.02467 14.8869 8.94393 14.6795 8.80265L14.6696 8.79256C14.4721 8.65128 14.2549 8.55036 14.0277 8.47972L13.9389 8.44944C13.5142 8.32834 13.06 8.32834 12.6353 8.46962L12.5958 8.47972C12.3884 8.55036 12.1909 8.65128 12.0033 8.77237C11.7512 8.96457 11.496 9.02467 11.2528 9.02467H10.812Z"></path>
  <g filter="url(#filter11_f_4002_939)">
    <path fill="url(#paint35_linear_4002_939)" d="M20.0008 5.0643L16.912 6.09411C16.3861 6.26944 16.0868 6.82309 16.2281 7.35913C16.3632 7.87156 16.8587 8.20327 17.3839 8.13294L20.455 7.72176L20.0008 5.0643Z"></path>
  </g>
  <g filter="url(#filter12_i_4002_939)">
    <path fill="#242324" d="M20.8588 4.20785L21.2895 4.42197C22.0432 4.79669 22.4739 5.65319 22.3124 6.56322L21.7202 9.61449C21.6674 9.92962 21.4591 10.1417 21.1461 10.1496C21.1401 10.1497 21.1341 10.1498 21.128 10.1498C21.128 10.1498 21.1818 9.23974 21.2357 8.70443C21.2794 8.26973 21.2035 8.13713 20.8049 7.74087C20.5896 7.52675 20.4281 7.20556 20.4281 6.88437V6.02788C20.4281 5.76022 20.2127 5.5461 19.9974 5.49256C19.3513 5.33197 18.0054 5.06432 16.0672 5.06432C14.1291 5.06432 12.7831 5.33197 12.1371 5.49256C11.8679 5.5461 11.7064 5.76022 11.7064 6.02788V6.88437C11.7064 7.20556 11.5987 7.52675 11.3295 7.74087L11.168 7.90146C10.9526 8.06206 10.845 8.38324 10.845 8.6509C10.8988 9.23974 10.9526 10.0962 10.9526 10.0962C10.9361 10.0962 10.9197 10.0957 10.9034 10.0946C10.6026 10.074 10.3577 9.86568 10.3066 9.56096L9.71437 6.50969C9.6067 5.65319 10.0374 4.79669 10.7911 4.42197L11.2218 4.20785C11.491 4.04725 11.7602 3.83313 12.0294 3.61901L12.9985 2.60191C13.5907 2.0666 14.4521 1.90601 15.2058 2.28073C15.7442 2.44132 16.3364 2.44132 16.8748 2.28073C17.6824 2.01307 18.5976 2.2272 19.2437 2.81604L20.0512 3.61901C20.2666 3.88666 20.5358 4.04725 20.8588 4.20785Z"></path>
    <path fill="url(#paint36_radial_4002_939)" d="M20.8588 4.20785L21.2895 4.42197C22.0432 4.79669 22.4739 5.65319 22.3124 6.56322L21.7202 9.61449C21.6674 9.92962 21.4591 10.1417 21.1461 10.1496C21.1401 10.1497 21.1341 10.1498 21.128 10.1498C21.128 10.1498 21.1818 9.23974 21.2357 8.70443C21.2794 8.26973 21.2035 8.13713 20.8049 7.74087C20.5896 7.52675 20.4281 7.20556 20.4281 6.88437V6.02788C20.4281 5.76022 20.2127 5.5461 19.9974 5.49256C19.3513 5.33197 18.0054 5.06432 16.0672 5.06432C14.1291 5.06432 12.7831 5.33197 12.1371 5.49256C11.8679 5.5461 11.7064 5.76022 11.7064 6.02788V6.88437C11.7064 7.20556 11.5987 7.52675 11.3295 7.74087L11.168 7.90146C10.9526 8.06206 10.845 8.38324 10.845 8.6509C10.8988 9.23974 10.9526 10.0962 10.9526 10.0962C10.9361 10.0962 10.9197 10.0957 10.9034 10.0946C10.6026 10.074 10.3577 9.86568 10.3066 9.56096L9.71437 6.50969C9.6067 5.65319 10.0374 4.79669 10.7911 4.42197L11.2218 4.20785C11.491 4.04725 11.7602 3.83313 12.0294 3.61901L12.9985 2.60191C13.5907 2.0666 14.4521 1.90601 15.2058 2.28073C15.7442 2.44132 16.3364 2.44132 16.8748 2.28073C17.6824 2.01307 18.5976 2.2272 19.2437 2.81604L20.0512 3.61901C20.2666 3.88666 20.5358 4.04725 20.8588 4.20785Z"></path>
    <path fill="url(#paint37_radial_4002_939)" d="M20.8588 4.20785L21.2895 4.42197C22.0432 4.79669 22.4739 5.65319 22.3124 6.56322L21.7202 9.61449C21.6674 9.92962 21.4591 10.1417 21.1461 10.1496C21.1401 10.1497 21.1341 10.1498 21.128 10.1498C21.128 10.1498 21.1818 9.23974 21.2357 8.70443C21.2794 8.26973 21.2035 8.13713 20.8049 7.74087C20.5896 7.52675 20.4281 7.20556 20.4281 6.88437V6.02788C20.4281 5.76022 20.2127 5.5461 19.9974 5.49256C19.3513 5.33197 18.0054 5.06432 16.0672 5.06432C14.1291 5.06432 12.7831 5.33197 12.1371 5.49256C11.8679 5.5461 11.7064 5.76022 11.7064 6.02788V6.88437C11.7064 7.20556 11.5987 7.52675 11.3295 7.74087L11.168 7.90146C10.9526 8.06206 10.845 8.38324 10.845 8.6509C10.8988 9.23974 10.9526 10.0962 10.9526 10.0962C10.9361 10.0962 10.9197 10.0957 10.9034 10.0946C10.6026 10.074 10.3577 9.86568 10.3066 9.56096L9.71437 6.50969C9.6067 5.65319 10.0374 4.79669 10.7911 4.42197L11.2218 4.20785C11.491 4.04725 11.7602 3.83313 12.0294 3.61901L12.9985 2.60191C13.5907 2.0666 14.4521 1.90601 15.2058 2.28073C15.7442 2.44132 16.3364 2.44132 16.8748 2.28073C17.6824 2.01307 18.5976 2.2272 19.2437 2.81604L20.0512 3.61901C20.2666 3.88666 20.5358 4.04725 20.8588 4.20785Z"></path>
    <path fill="url(#paint38_radial_4002_939)" d="M20.8588 4.20785L21.2895 4.42197C22.0432 4.79669 22.4739 5.65319 22.3124 6.56322L21.7202 9.61449C21.6674 9.92962 21.4591 10.1417 21.1461 10.1496C21.1401 10.1497 21.1341 10.1498 21.128 10.1498C21.128 10.1498 21.1818 9.23974 21.2357 8.70443C21.2794 8.26973 21.2035 8.13713 20.8049 7.74087C20.5896 7.52675 20.4281 7.20556 20.4281 6.88437V6.02788C20.4281 5.76022 20.2127 5.5461 19.9974 5.49256C19.3513 5.33197 18.0054 5.06432 16.0672 5.06432C14.1291 5.06432 12.7831 5.33197 12.1371 5.49256C11.8679 5.5461 11.7064 5.76022 11.7064 6.02788V6.88437C11.7064 7.20556 11.5987 7.52675 11.3295 7.74087L11.168 7.90146C10.9526 8.06206 10.845 8.38324 10.845 8.6509C10.8988 9.23974 10.9526 10.0962 10.9526 10.0962C10.9361 10.0962 10.9197 10.0957 10.9034 10.0946C10.6026 10.074 10.3577 9.86568 10.3066 9.56096L9.71437 6.50969C9.6067 5.65319 10.0374 4.79669 10.7911 4.42197L11.2218 4.20785C11.491 4.04725 11.7602 3.83313 12.0294 3.61901L12.9985 2.60191C13.5907 2.0666 14.4521 1.90601 15.2058 2.28073C15.7442 2.44132 16.3364 2.44132 16.8748 2.28073C17.6824 2.01307 18.5976 2.2272 19.2437 2.81604L20.0512 3.61901C20.2666 3.88666 20.5358 4.04725 20.8588 4.20785Z"></path>
    <path fill="url(#paint39_radial_4002_939)" d="M20.8588 4.20785L21.2895 4.42197C22.0432 4.79669 22.4739 5.65319 22.3124 6.56322L21.7202 9.61449C21.6674 9.92962 21.4591 10.1417 21.1461 10.1496C21.1401 10.1497 21.1341 10.1498 21.128 10.1498C21.128 10.1498 21.1818 9.23974 21.2357 8.70443C21.2794 8.26973 21.2035 8.13713 20.8049 7.74087C20.5896 7.52675 20.4281 7.20556 20.4281 6.88437V6.02788C20.4281 5.76022 20.2127 5.5461 19.9974 5.49256C19.3513 5.33197 18.0054 5.06432 16.0672 5.06432C14.1291 5.06432 12.7831 5.33197 12.1371 5.49256C11.8679 5.5461 11.7064 5.76022 11.7064 6.02788V6.88437C11.7064 7.20556 11.5987 7.52675 11.3295 7.74087L11.168 7.90146C10.9526 8.06206 10.845 8.38324 10.845 8.6509C10.8988 9.23974 10.9526 10.0962 10.9526 10.0962C10.9361 10.0962 10.9197 10.0957 10.9034 10.0946C10.6026 10.074 10.3577 9.86568 10.3066 9.56096L9.71437 6.50969C9.6067 5.65319 10.0374 4.79669 10.7911 4.42197L11.2218 4.20785C11.491 4.04725 11.7602 3.83313 12.0294 3.61901L12.9985 2.60191C13.5907 2.0666 14.4521 1.90601 15.2058 2.28073C15.7442 2.44132 16.3364 2.44132 16.8748 2.28073C17.6824 2.01307 18.5976 2.2272 19.2437 2.81604L20.0512 3.61901C20.2666 3.88666 20.5358 4.04725 20.8588 4.20785Z"></path>
  </g>
  <g filter="url(#filter13_i_4002_939)">
    <path fill="#F7C1A9" d="M15.6388 10.4232L15.1055 12.1291C14.9966 12.48 15.2579 12.8309 15.6279 12.8309H16.417C16.787 12.8309 17.0483 12.4746 16.9394 12.1291L16.4061 10.4232C16.2918 10.0453 15.7585 10.0453 15.6388 10.4232Z"></path>
    <path fill="url(#paint40_radial_4002_939)" d="M15.6388 10.4232L15.1055 12.1291C14.9966 12.48 15.2579 12.8309 15.6279 12.8309H16.417C16.787 12.8309 17.0483 12.4746 16.9394 12.1291L16.4061 10.4232C16.2918 10.0453 15.7585 10.0453 15.6388 10.4232Z"></path>
  </g>
  <g filter="url(#filter14_f_4002_939)">
    <path stroke="url(#paint41_linear_4002_939)" stroke-width=".2" d="M16.0226 13.8511C15.5134 13.8511 15.0347 13.7312 14.6324 13.5215C14.4949 13.4516 14.3472 13.6064 14.4338 13.7312C14.7699 14.2406 15.3555 14.5801 16.0226 14.5801C16.6897 14.5801 17.2754 14.2406 17.6115 13.7312C17.698 13.6014 17.5503 13.4516 17.4129 13.5215C17.0106 13.7312 16.537 13.8511 16.0226 13.8511Z"></path>
  </g>
  <path fill="#88024E" d="M16.0226 13.8511C15.5134 13.8511 15.0347 13.7312 14.6324 13.5215C14.4949 13.4516 14.3472 13.6064 14.4338 13.7312C14.7699 14.2406 15.3555 14.5801 16.0226 14.5801C16.6897 14.5801 17.2754 14.2406 17.6115 13.7312C17.698 13.6014 17.5503 13.4516 17.4129 13.5215C17.0106 13.7312 16.537 13.8511 16.0226 13.8511Z"></path>
  <path fill="#fff" d="M18.4191 9.27365C19.0745 9.27365 19.6281 9.72549 19.7787 10.3361C19.8235 10.5111 19.6891 10.678 19.51 10.678H17.2712C17.1287 10.678 17.0147 10.5478 17.0432 10.4053C17.1694 9.76213 17.7352 9.27365 18.4191 9.27365Z"></path>
  <path fill="url(#paint42_radial_4002_939)" d="M18.2116 9.54636C18.7082 9.54636 19.1072 9.94935 19.1072 10.4419C19.1072 10.5233 19.095 10.6047 19.0746 10.678H17.3446C17.3242 10.6007 17.312 10.5233 17.312 10.4419C17.312 9.94935 17.715 9.54636 18.2116 9.54636Z"></path>
  <path fill="#000" d="M17.6987 10.4419C17.6987 10.1569 17.9267 9.92899 18.2116 9.92899C18.4966 9.92899 18.7245 10.1569 18.7245 10.4419C18.7245 10.5274 18.7042 10.6088 18.6675 10.678H17.7598C17.7191 10.6088 17.6987 10.5274 17.6987 10.4419Z"></path>
  <g filter="url(#filter15_f_4002_939)">
    <path fill="#C7A7A3" d="M18.1456 9.73568C18.2094 9.82101 18.0761 9.92504 17.9244 10.0384C17.7728 10.1518 17.6603 10.2316 17.5965 10.1462C17.5327 10.0609 17.6039 9.89982 17.7555 9.78645C17.9072 9.67307 18.0818 9.65034 18.1456 9.73568Z"></path>
    <path fill="url(#paint43_radial_4002_939)" d="M18.1456 9.73568C18.2094 9.82101 18.0761 9.92504 17.9244 10.0384C17.7728 10.1518 17.6603 10.2316 17.5965 10.1462C17.5327 10.0609 17.6039 9.89982 17.7555 9.78645C17.9072 9.67307 18.0818 9.65034 18.1456 9.73568Z"></path>
  </g>
  <g filter="url(#filter16_f_4002_939)">
    <path fill="url(#paint44_linear_4002_939)" d="M19.0093 10.324C18.9762 10.0924 18.8407 9.91795 18.7771 9.85965L18.5164 10.1459L18.634 10.3748L19.0093 10.324Z"></path>
  </g>
  <path fill="#fff" d="M13.6208 9.27359C12.9654 9.27359 12.4117 9.72545 12.2611 10.3361C12.2163 10.5111 12.3507 10.678 12.5298 10.678H14.7688C14.9112 10.678 15.0252 10.5478 14.9967 10.4053C14.8705 9.76209 14.3006 9.27359 13.6208 9.27359Z"></path>
  <path fill="url(#paint45_radial_4002_939)" d="M13.8282 9.5463C13.3316 9.5463 12.9326 9.94931 12.9326 10.4419C12.9326 10.5233 12.9448 10.6047 12.9652 10.678H14.6953C14.7157 10.6006 14.7279 10.5233 14.7279 10.4419C14.7238 9.94931 14.3248 9.5463 13.8282 9.5463Z"></path>
  <path fill="#000" d="M14.3413 10.4419C14.3413 10.157 14.1133 9.92899 13.8284 9.92899C13.5434 9.92899 13.3154 10.157 13.3154 10.4419C13.3154 10.5274 13.3358 10.6088 13.3724 10.678H14.2802C14.3169 10.6088 14.3413 10.5274 14.3413 10.4419Z"></path>
  <g filter="url(#filter17_f_4002_939)">
    <path fill="url(#paint46_linear_4002_939)" d="M14.6465 10.3367C14.6465 10.0473 14.4111 9.85436 14.3475 9.79605L14.0581 10.0759L14.2362 10.4385L14.6465 10.3367Z"></path>
  </g>
  <g filter="url(#filter18_f_4002_939)">
    <ellipse cx="13.558" cy="9.929" fill="#C7A7A3" fill-opacity=".9" rx=".391" ry=".198" transform="rotate(-27.914 13.558 9.929)"></ellipse>
    <ellipse cx="13.558" cy="9.929" fill="url(#paint47_radial_4002_939)" rx=".391" ry=".198" transform="rotate(-27.914 13.558 9.929)"></ellipse>
  </g>
  <g filter="url(#filter19_f_4002_939)">
    <path stroke="url(#paint48_linear_4002_939)" stroke-linecap="round" stroke-width=".25" d="M11.4729 5.88046V6.78132C11.4651 6.93049 11.4023 7.26414 11.2139 7.40545"></path>
  </g>
  <defs>
    <radialGradient id="paint0_radial_4002_939" cx="0" cy="0" r="1" gradientTransform="matrix(0 11.5824 -20.8203 0 16 18.341)" gradientUnits="userSpaceOnUse">
      <stop offset=".572" stop-color="#FF3B9A"></stop>
      <stop offset="1" stop-color="#EE344D"></stop>
    </radialGradient>
    <radialGradient id="paint1_radial_4002_939" cx="0" cy="0" r="1" gradientTransform="rotate(124.924 1.236 11.036)scale(12.8824 12.131)" gradientUnits="userSpaceOnUse">
      <stop stop-color="#BF2370"></stop>
      <stop offset="1" stop-color="#BF2370" stop-opacity="0"></stop>
    </radialGradient>
    <radialGradient id="paint3_radial_4002_939" cx="0" cy="0" r="1" gradientTransform="rotate(123.174 5.845 15.582)scale(11.5365 12.2083)" gradientUnits="userSpaceOnUse">
      <stop stop-color="#4690E6"></stop>
      <stop offset="1" stop-color="#3E75E1"></stop>
    </radialGradient>
    <radialGradient id="paint4_radial_4002_939" cx="0" cy="0" r="1" gradientTransform="rotate(100.184 -.312 14.05)scale(5.30229 7.65346)" gradientUnits="userSpaceOnUse">
      <stop offset=".231" stop-color="#3062AC"></stop>
      <stop offset="1" stop-color="#3A7AD3" stop-opacity="0"></stop>
    </radialGradient>
    <radialGradient id="paint6_radial_4002_939" cx="0" cy="0" r="1" gradientTransform="matrix(5.4375 0 0 14.5199 23.18 29.591)" gradientUnits="userSpaceOnUse">
      <stop offset=".698" stop-color="#528ADB" stop-opacity="0"></stop>
      <stop offset="1" stop-color="#528ADB"></stop>
    </radialGradient>
    <radialGradient id="paint7_radial_4002_939" cx="0" cy="0" r="1" gradientTransform="matrix(0 -13.1762 .21924 0 23.68 29.924)" gradientUnits="userSpaceOnUse">
      <stop offset=".21" stop-color="#286ADF"></stop>
      <stop offset="1" stop-color="#286ADF" stop-opacity="0"></stop>
    </radialGradient>
    <radialGradient id="paint9_radial_4002_939" cx="0" cy="0" r="1" gradientTransform="matrix(-5.6875 0 0 -13.3438 9.555 29.747)" gradientUnits="userSpaceOnUse">
      <stop offset=".813" stop-color="#407DBE" stop-opacity="0"></stop>
      <stop offset="1" stop-color="#407DBE"></stop>
    </radialGradient>
    <radialGradient id="paint10_radial_4002_939" cx="0" cy="0" r="1" gradientTransform="matrix(.14062 -1.5668 5.45335 .48945 5.71 29.924)" gradientUnits="userSpaceOnUse">
      <stop stop-color="#3D71ED"></stop>
      <stop offset="1" stop-color="#3D71ED" stop-opacity="0"></stop>
    </radialGradient>
    <radialGradient id="paint11_radial_4002_939" cx="0" cy="0" r="1" gradientTransform="matrix(-.21094 0 0 -15.1051 8.383 29.924)" gradientUnits="userSpaceOnUse">
      <stop stop-color="#2154CA"></stop>
      <stop offset="1" stop-color="#2154CA" stop-opacity="0"></stop>
    </radialGradient>
    <radialGradient id="paint14_radial_4002_939" cx="0" cy="0" r="1" gradientTransform="matrix(-.70312 .54687 -.67794 -.87163 19.711 23.372)" gradientUnits="userSpaceOnUse">
      <stop offset=".073" stop-color="#53B7FF"></stop>
      <stop offset="1" stop-color="#49A3FF" stop-opacity="0"></stop>
    </radialGradient>
    <radialGradient id="paint16_radial_4002_939" cx="0" cy="0" r="1" gradientTransform="matrix(-3.8125 0 0 -3.66953 14.367 15.966)" gradientUnits="userSpaceOnUse">
      <stop offset=".205" stop-color="#C31852"></stop>
      <stop offset="1" stop-color="#C31852" stop-opacity="0"></stop>
    </radialGradient>
    <radialGradient id="paint17_radial_4002_939" cx="0" cy="0" r="1" gradientTransform="matrix(0 1.53125 -3 0 20.742 15.31)" gradientUnits="userSpaceOnUse">
      <stop offset=".184" stop-color="#F04451"></stop>
      <stop offset="1" stop-color="#F04451" stop-opacity="0"></stop>
    </radialGradient>
    <radialGradient id="paint18_radial_4002_939" cx="0" cy="0" r="1" gradientTransform="rotate(126.363 3.45 13.926)scale(1.76569 1.94865)" gradientUnits="userSpaceOnUse">
      <stop stop-color="#FFF14E"></stop>
      <stop offset="1" stop-color="#F2BB43"></stop>
    </radialGradient>
    <radialGradient id="paint19_radial_4002_939" cx="0" cy="0" r="1" gradientTransform="rotate(111.306 1.447 15.45)scale(1.67712 2.10568)" gradientUnits="userSpaceOnUse">
      <stop offset=".511" stop-color="#F6C546" stop-opacity="0"></stop>
      <stop offset="1" stop-color="#D79D4A"></stop>
    </radialGradient>
    <radialGradient id="paint20_radial_4002_939" cx="0" cy="0" r="1" gradientTransform="rotate(41.072 -15.053 28.285)scale(2.76174 3.96201)" gradientUnits="userSpaceOnUse">
      <stop offset=".352" stop-color="#C38389"></stop>
      <stop offset="1" stop-color="#E1A18F"></stop>
      <stop offset="1" stop-color="#F4B4AB"></stop>
    </radialGradient>
    <radialGradient id="paint21_radial_4002_939" cx="0" cy="0" r="1" gradientTransform="matrix(1.76135 0 0 3.08238 9.582 10.71)" gradientUnits="userSpaceOnUse">
      <stop offset=".351" stop-color="#CF9888"></stop>
      <stop offset="1" stop-color="#BE8C77"></stop>
    </radialGradient>
    <radialGradient id="paint24_radial_4002_939" cx="0" cy="0" r="1" gradientTransform="matrix(.82975 -.60419 .6896 .94706 21.179 10.444)" gradientUnits="userSpaceOnUse">
      <stop offset=".543" stop-color="#D9AA94"></stop>
      <stop offset="1" stop-color="#D9AA94" stop-opacity="0"></stop>
    </radialGradient>
    <radialGradient id="paint25_radial_4002_939" cx="0" cy="0" r="1" gradientTransform="matrix(.8243 -1.51612 .88738 .48246 20.764 11.534)" gradientUnits="userSpaceOnUse">
      <stop offset=".755" stop-color="#D6A38D" stop-opacity="0"></stop>
      <stop offset=".916" stop-color="#D6A38D"></stop>
    </radialGradient>
    <radialGradient id="paint26_radial_4002_939" cx="0" cy="0" r="1" gradientTransform="matrix(.26025 .2576 -.33209 .3355 20.805 10.71)" gradientUnits="userSpaceOnUse">
      <stop stop-color="#D5A58E"></stop>
      <stop offset="1" stop-color="#D5A58E" stop-opacity="0"></stop>
    </radialGradient>
    <radialGradient id="paint28_radial_4002_939" cx="0" cy="0" r="1" gradientTransform="matrix(0 9.47015 -12.8552 0 16.052 8.777)" gradientUnits="userSpaceOnUse">
      <stop offset=".557" stop-color="#D7A09D" stop-opacity="0"></stop>
      <stop offset=".93" stop-color="#B07F87"></stop>
    </radialGradient>
    <radialGradient id="paint31_radial_4002_939" cx="0" cy="0" r="1" gradientTransform="matrix(0 -1.31191 1.61466 0 18.377 9.433)" gradientUnits="userSpaceOnUse">
      <stop stop-color="#F5B7A7"></stop>
      <stop offset="1" stop-color="#F5B7A7" stop-opacity="0"></stop>
    </radialGradient>
    <radialGradient id="paint32_radial_4002_939" cx="0" cy="0" r="1" gradientTransform="matrix(0 -1.39601 1.73606 0 13.802 9.4)" gradientUnits="userSpaceOnUse">
      <stop stop-color="#D0958D"></stop>
      <stop offset="1" stop-color="#D0958D" stop-opacity="0"></stop>
    </radialGradient>
    <radialGradient id="paint36_radial_4002_939" cx="0" cy="0" r="1" gradientTransform="matrix(.80077 -2.96755 1.10046 .29695 20.383 6.588)" gradientUnits="userSpaceOnUse">
      <stop stop-color="#464344"></stop>
      <stop offset="1" stop-color="#464344" stop-opacity="0"></stop>
    </radialGradient>
    <radialGradient id="paint37_radial_4002_939" cx="0" cy="0" r="1" gradientTransform="matrix(3.83897 .35328 -.18996 2.06419 18.735 4.822)" gradientUnits="userSpaceOnUse">
      <stop offset=".335" stop-color="#4A4648"></stop>
      <stop offset="1" stop-color="#4A4648" stop-opacity="0"></stop>
    </radialGradient>
    <radialGradient id="paint38_radial_4002_939" cx="0" cy="0" r="1" gradientTransform="matrix(0 1.68538 -2.61018 0 16.022 2.077)" gradientUnits="userSpaceOnUse">
      <stop stop-color="#423D3F"></stop>
      <stop offset="1" stop-color="#423D3F" stop-opacity="0"></stop>
    </radialGradient>
    <radialGradient id="paint39_radial_4002_939" cx="0" cy="0" r="1" gradientTransform="matrix(3.0853 -2.26099 3.54223 4.83366 9.55 8.92)" gradientUnits="userSpaceOnUse">
      <stop stop-color="#463C39"></stop>
      <stop offset="1" stop-color="#463C39" stop-opacity="0"></stop>
    </radialGradient>
    <radialGradient id="paint40_radial_4002_939" cx="0" cy="0" r="1" gradientTransform="rotate(-97.263 13.86 -1.363)scale(3.74136 1.46336)" gradientUnits="userSpaceOnUse">
      <stop offset=".166" stop-color="#FFCEB8"></stop>
      <stop offset="1" stop-color="#FFCEB8" stop-opacity="0"></stop>
    </radialGradient>
    <radialGradient id="paint42_radial_4002_939" cx="0" cy="0" r="1" gradientTransform="matrix(0 .81413 -1.29496 0 18.21 10.025)" gradientUnits="userSpaceOnUse">
      <stop offset=".802" stop-color="#7D574A"></stop>
      <stop offset="1" stop-color="#694B43"></stop>
      <stop offset="1" stop-color="#804D49"></stop>
      <stop offset="1" stop-color="#664944"></stop>
    </radialGradient>
    <radialGradient id="paint43_radial_4002_939" cx="0" cy="0" r="1" gradientTransform="rotate(-127.812 11.466 .652)scale(.3796 .52261)" gradientUnits="userSpaceOnUse">
      <stop offset=".766" stop-color="#FFE6E2" stop-opacity="0"></stop>
      <stop offset=".966" stop-color="#FFE6E2"></stop>
    </radialGradient>
    <radialGradient id="paint45_radial_4002_939" cx="0" cy="0" r="1" gradientTransform="matrix(0 .81417 -1.29503 0 13.83 10.025)" gradientUnits="userSpaceOnUse">
      <stop offset=".802" stop-color="#7D574A"></stop>
      <stop offset="1" stop-color="#694B43"></stop>
      <stop offset="1" stop-color="#804D49"></stop>
      <stop offset="1" stop-color="#664944"></stop>
    </radialGradient>
    <radialGradient id="paint47_radial_4002_939" cx="0" cy="0" r="1" gradientTransform="matrix(-.00776 -.4958 .59597 -.00933 13.543 10.245)" gradientUnits="userSpaceOnUse">
      <stop offset=".766" stop-color="#FFE6E2" stop-opacity="0"></stop>
      <stop offset=".966" stop-color="#FFE6E2"></stop>
    </radialGradient>
    <filter id="filter0_f_4002_939" width="25.813" height="14.219" x="3.094" y="15.955" color-interpolation-filters="sRGB" filterUnits="userSpaceOnUse">
      <feFlood flood-opacity="0" result="BackgroundImageFix"></feFlood>
      <feBlend in="SourceGraphic" in2="BackgroundImageFix" result="shape"></feBlend>
      <feGaussianBlur result="effect1_foregroundBlur_4002_939" stdDeviation=".125"></feGaussianBlur>
    </filter>
    <filter id="filter1_f_4002_939" width="9.1" height="7.705" x="10.989" y="22.388" color-interpolation-filters="sRGB" filterUnits="userSpaceOnUse">
      <feFlood flood-opacity="0" result="BackgroundImageFix"></feFlood>
      <feBlend in="SourceGraphic" in2="BackgroundImageFix" result="shape"></feBlend>
      <feGaussianBlur result="effect1_foregroundBlur_4002_939" stdDeviation=".5"></feGaussianBlur>
    </filter>
    <filter id="filter2_iii_4002_939" width="7.926" height="6.427" x="12.029" y="22.816" color-interpolation-filters="sRGB" filterUnits="userSpaceOnUse">
      <feFlood flood-opacity="0" result="BackgroundImageFix"></feFlood>
      <feBlend in="SourceGraphic" in2="BackgroundImageFix" result="shape"></feBlend>
      <feColorMatrix in="SourceAlpha" result="hardAlpha" values="0 0 0 0 0 0 0 0 0 0 0 0 0 0 0 0 0 0 127 0"></feColorMatrix>
      <feOffset dx="-.15" dy=".15"></feOffset>
      <feGaussianBlur stdDeviation=".15"></feGaussianBlur>
      <feComposite in2="hardAlpha" k2="-1" k3="1" operator="arithmetic"></feComposite>
      <feColorMatrix values="0 0 0 0 0.282353 0 0 0 0 0.670588 0 0 0 0 1 0 0 0 1 0"></feColorMatrix>
      <feBlend in2="shape" result="effect1_innerShadow_4002_939"></feBlend>
      <feColorMatrix in="SourceAlpha" result="hardAlpha" values="0 0 0 0 0 0 0 0 0 0 0 0 0 0 0 0 0 0 127 0"></feColorMatrix>
      <feOffset dx=".15" dy="-.15"></feOffset>
      <feGaussianBlur stdDeviation=".3"></feGaussianBlur>
      <feComposite in2="hardAlpha" k2="-1" k3="1" operator="arithmetic"></feComposite>
      <feColorMatrix values="0 0 0 0 0.196078 0 0 0 0 0.407843 0 0 0 0 0.87451 0 0 0 1 0"></feColorMatrix>
      <feBlend in2="effect1_innerShadow_4002_939" result="effect2_innerShadow_4002_939"></feBlend>
      <feColorMatrix in="SourceAlpha" result="hardAlpha" values="0 0 0 0 0 0 0 0 0 0 0 0 0 0 0 0 0 0 127 0"></feColorMatrix>
      <feOffset dx=".05" dy="-.05"></feOffset>
      <feGaussianBlur stdDeviation=".1"></feGaussianBlur>
      <feComposite in2="hardAlpha" k2="-1" k3="1" operator="arithmetic"></feComposite>
      <feColorMatrix values="0 0 0 0 0.164706 0 0 0 0 0.317647 0 0 0 0 0.886275 0 0 0 1 0"></feColorMatrix>
      <feBlend in2="effect2_innerShadow_4002_939" result="effect3_innerShadow_4002_939"></feBlend>
    </filter>
    <filter id="filter3_f_4002_939" width="3.095" height="3.11" x="14.16" y="18.677" color-interpolation-filters="sRGB" filterUnits="userSpaceOnUse">
      <feFlood flood-opacity="0" result="BackgroundImageFix"></feFlood>
      <feBlend in="SourceGraphic" in2="BackgroundImageFix" result="shape"></feBlend>
      <feGaussianBlur result="effect1_foregroundBlur_4002_939" stdDeviation=".25"></feGaussianBlur>
    </filter>
    <filter id="filter4_i_4002_939" width="11.606" height="4.825" x="10.289" y="15.579" color-interpolation-filters="sRGB" filterUnits="userSpaceOnUse">
      <feFlood flood-opacity="0" result="BackgroundImageFix"></feFlood>
      <feBlend in="SourceGraphic" in2="BackgroundImageFix" result="shape"></feBlend>
      <feColorMatrix in="SourceAlpha" result="hardAlpha" values="0 0 0 0 0 0 0 0 0 0 0 0 0 0 0 0 0 0 127 0"></feColorMatrix>
      <feOffset dx=".2" dy="-.25"></feOffset>
      <feGaussianBlur stdDeviation=".1"></feGaussianBlur>
      <feComposite in2="hardAlpha" k2="-1" k3="1" operator="arithmetic"></feComposite>
      <feColorMatrix values="0 0 0 0 0.803922 0 0 0 0 0.223529 0 0 0 0 0.533333 0 0 0 1 0"></feColorMatrix>
      <feBlend in2="shape" result="effect1_innerShadow_4002_939"></feBlend>
    </filter>
    <filter id="filter5_i_4002_939" width="3.551" height="3.351" x="9.582" y="9.034" color-interpolation-filters="sRGB" filterUnits="userSpaceOnUse">
      <feFlood flood-opacity="0" result="BackgroundImageFix"></feFlood>
      <feBlend in="SourceGraphic" in2="BackgroundImageFix" result="shape"></feBlend>
      <feColorMatrix in="SourceAlpha" result="hardAlpha" values="0 0 0 0 0 0 0 0 0 0 0 0 0 0 0 0 0 0 127 0"></feColorMatrix>
      <feOffset dx=".2"></feOffset>
      <feGaussianBlur stdDeviation=".15"></feGaussianBlur>
      <feComposite in2="hardAlpha" k2="-1" k3="1" operator="arithmetic"></feComposite>
      <feColorMatrix values="0 0 0 0 0.917647 0 0 0 0 0.694118 0 0 0 0 0.607843 0 0 0 1 0"></feColorMatrix>
      <feBlend in2="shape" result="effect1_innerShadow_4002_939"></feBlend>
    </filter>
    <filter id="filter6_f_4002_939" width="2.997" height="2.997" x="9.759" y="9.211" color-interpolation-filters="sRGB" filterUnits="userSpaceOnUse">
      <feFlood flood-opacity="0" result="BackgroundImageFix"></feFlood>
      <feBlend in="SourceGraphic" in2="BackgroundImageFix" result="shape"></feBlend>
      <feGaussianBlur result="effect1_foregroundBlur_4002_939" stdDeviation=".25"></feGaussianBlur>
    </filter>
    <filter id="filter7_i_4002_939" width="3.601" height="3.601" x="19.13" y="8.784" color-interpolation-filters="sRGB" filterUnits="userSpaceOnUse">
      <feFlood flood-opacity="0" result="BackgroundImageFix"></feFlood>
      <feBlend in="SourceGraphic" in2="BackgroundImageFix" result="shape"></feBlend>
      <feColorMatrix in="SourceAlpha" result="hardAlpha" values="0 0 0 0 0 0 0 0 0 0 0 0 0 0 0 0 0 0 127 0"></feColorMatrix>
      <feOffset dx=".25" dy="-.25"></feOffset>
      <feGaussianBlur stdDeviation=".25"></feGaussianBlur>
      <feComposite in2="hardAlpha" k2="-1" k3="1" operator="arithmetic"></feComposite>
      <feColorMatrix values="0 0 0 0 0.843137 0 0 0 0 0.623529 0 0 0 0 0.580392 0 0 0 1 0"></feColorMatrix>
      <feBlend in2="shape" result="effect1_innerShadow_4002_939"></feBlend>
    </filter>
    <filter id="filter8_f_4002_939" width="2.997" height="2.997" x="19.307" y="9.211" color-interpolation-filters="sRGB" filterUnits="userSpaceOnUse">
      <feFlood flood-opacity="0" result="BackgroundImageFix"></feFlood>
      <feBlend in="SourceGraphic" in2="BackgroundImageFix" result="shape"></feBlend>
      <feGaussianBlur result="effect1_foregroundBlur_4002_939" stdDeviation=".25"></feGaussianBlur>
    </filter>
    <filter id="filter9_i_4002_939" width="10.412" height="12.322" x="10.845" y="5.064" color-interpolation-filters="sRGB" filterUnits="userSpaceOnUse">
      <feFlood flood-opacity="0" result="BackgroundImageFix"></feFlood>
      <feBlend in="SourceGraphic" in2="BackgroundImageFix" result="shape"></feBlend>
      <feColorMatrix in="SourceAlpha" result="hardAlpha" values="0 0 0 0 0 0 0 0 0 0 0 0 0 0 0 0 0 0 127 0"></feColorMatrix>
      <feOffset dy=".25"></feOffset>
      <feGaussianBlur stdDeviation=".375"></feGaussianBlur>
      <feComposite in2="hardAlpha" k2="-1" k3="1" operator="arithmetic"></feComposite>
      <feColorMatrix values="0 0 0 0 0.819608 0 0 0 0 0.615686 0 0 0 0 0.509804 0 0 0 1 0"></feColorMatrix>
      <feBlend in2="shape" result="effect1_innerShadow_4002_939"></feBlend>
    </filter>
    <filter id="filter10_f_4002_939" width="3.266" height="4.191" x="14.149" y="9.553" color-interpolation-filters="sRGB" filterUnits="userSpaceOnUse">
      <feFlood flood-opacity="0" result="BackgroundImageFix"></feFlood>
      <feBlend in="SourceGraphic" in2="BackgroundImageFix" result="shape"></feBlend>
      <feGaussianBlur result="effect1_foregroundBlur_4002_939" stdDeviation=".375"></feGaussianBlur>
    </filter>
    <filter id="filter11_f_4002_939" width="8.262" height="7.078" x="14.193" y="3.064" color-interpolation-filters="sRGB" filterUnits="userSpaceOnUse">
      <feFlood flood-opacity="0" result="BackgroundImageFix"></feFlood>
      <feBlend in="SourceGraphic" in2="BackgroundImageFix" result="shape"></feBlend>
      <feGaussianBlur result="effect1_foregroundBlur_4002_939" stdDeviation="1"></feGaussianBlur>
    </filter>
    <filter id="filter12_i_4002_939" width="12.648" height="8.573" x="9.698" y="1.577" color-interpolation-filters="sRGB" filterUnits="userSpaceOnUse">
      <feFlood flood-opacity="0" result="BackgroundImageFix"></feFlood>
      <feBlend in="SourceGraphic" in2="BackgroundImageFix" result="shape"></feBlend>
      <feColorMatrix in="SourceAlpha" result="hardAlpha" values="0 0 0 0 0 0 0 0 0 0 0 0 0 0 0 0 0 0 127 0"></feColorMatrix>
      <feOffset dy="-.5"></feOffset>
      <feGaussianBlur stdDeviation=".375"></feGaussianBlur>
      <feComposite in2="hardAlpha" k2="-1" k3="1" operator="arithmetic"></feComposite>
      <feColorMatrix values="0 0 0 0 0.0392157 0 0 0 0 0.00784314 0 0 0 0 0.0196078 0 0 0 1 0"></feColorMatrix>
      <feBlend in2="shape" result="effect1_innerShadow_4002_939"></feBlend>
    </filter>
    <filter id="filter13_i_4002_939" width="2.184" height="2.891" x="15.081" y="9.94" color-interpolation-filters="sRGB" filterUnits="userSpaceOnUse">
      <feFlood flood-opacity="0" result="BackgroundImageFix"></feFlood>
      <feBlend in="SourceGraphic" in2="BackgroundImageFix" result="shape"></feBlend>
      <feColorMatrix in="SourceAlpha" result="hardAlpha" values="0 0 0 0 0 0 0 0 0 0 0 0 0 0 0 0 0 0 127 0"></feColorMatrix>
      <feOffset dx=".3" dy="-.2"></feOffset>
      <feGaussianBlur stdDeviation=".3"></feGaussianBlur>
      <feComposite in2="hardAlpha" k2="-1" k3="1" operator="arithmetic"></feComposite>
      <feColorMatrix values="0 0 0 0 0.870588 0 0 0 0 0.631373 0 0 0 0 0.580392 0 0 0 1 0"></feColorMatrix>
      <feBlend in2="shape" result="effect1_innerShadow_4002_939"></feBlend>
    </filter>
    <filter id="filter14_f_4002_939" width="3.63" height="1.477" x="14.208" y="13.304" color-interpolation-filters="sRGB" filterUnits="userSpaceOnUse">
      <feFlood flood-opacity="0" result="BackgroundImageFix"></feFlood>
      <feBlend in="SourceGraphic" in2="BackgroundImageFix" result="shape"></feBlend>
      <feGaussianBlur result="effect1_foregroundBlur_4002_939" stdDeviation=".05"></feGaussianBlur>
    </filter>
    <filter id="filter15_f_4002_939" width=".789" height=".698" x="17.473" y="9.584" color-interpolation-filters="sRGB" filterUnits="userSpaceOnUse">
      <feFlood flood-opacity="0" result="BackgroundImageFix"></feFlood>
      <feBlend in="SourceGraphic" in2="BackgroundImageFix" result="shape"></feBlend>
      <feGaussianBlur result="effect1_foregroundBlur_4002_939" stdDeviation=".05"></feGaussianBlur>
    </filter>
    <filter id="filter16_f_4002_939" width=".893" height=".915" x="18.316" y="9.66" color-interpolation-filters="sRGB" filterUnits="userSpaceOnUse">
      <feFlood flood-opacity="0" result="BackgroundImageFix"></feFlood>
      <feBlend in="SourceGraphic" in2="BackgroundImageFix" result="shape"></feBlend>
      <feGaussianBlur result="effect1_foregroundBlur_4002_939" stdDeviation=".1"></feGaussianBlur>
    </filter>
    <filter id="filter17_f_4002_939" width=".988" height="1.042" x="13.858" y="9.596" color-interpolation-filters="sRGB" filterUnits="userSpaceOnUse">
      <feFlood flood-opacity="0" result="BackgroundImageFix"></feFlood>
      <feBlend in="SourceGraphic" in2="BackgroundImageFix" result="shape"></feBlend>
      <feGaussianBlur result="effect1_foregroundBlur_4002_939" stdDeviation=".1"></feGaussianBlur>
    </filter>
    <filter id="filter18_f_4002_939" width=".916" height=".706" x="13.1" y="9.576" color-interpolation-filters="sRGB" filterUnits="userSpaceOnUse">
      <feFlood flood-opacity="0" result="BackgroundImageFix"></feFlood>
      <feBlend in="SourceGraphic" in2="BackgroundImageFix" result="shape"></feBlend>
      <feGaussianBlur result="effect1_foregroundBlur_4002_939" stdDeviation=".05"></feGaussianBlur>
    </filter>
    <filter id="filter19_f_4002_939" width="1.009" height="2.275" x="10.839" y="5.505" color-interpolation-filters="sRGB" filterUnits="userSpaceOnUse">
      <feFlood flood-opacity="0" result="BackgroundImageFix"></feFlood>
      <feBlend in="SourceGraphic" in2="BackgroundImageFix" result="shape"></feBlend>
      <feGaussianBlur result="effect1_foregroundBlur_4002_939" stdDeviation=".125"></feGaussianBlur>
    </filter>
    <linearGradient id="paint2_linear_4002_939" x1="16" x2="16" y1="16.205" y2="30.31" gradientUnits="userSpaceOnUse">
      <stop offset=".866" stop-color="#790B2C"></stop>
      <stop offset="1" stop-color="#790B2C" stop-opacity="0"></stop>
    </linearGradient>
    <linearGradient id="paint5_linear_4002_939" x1="26.992" x2="26.773" y1="30.216" y2="27.466" gradientUnits="userSpaceOnUse">
      <stop stop-color="#4D87F8"></stop>
      <stop offset="1" stop-color="#4B99FF" stop-opacity="0"></stop>
    </linearGradient>
    <linearGradient id="paint8_linear_4002_939" x1="8.586" x2="5.336" y1="25.122" y2="25.122" gradientUnits="userSpaceOnUse">
      <stop offset=".183" stop-color="#3E80F0"></stop>
      <stop offset="1" stop-color="#3E77D8"></stop>
    </linearGradient>
    <linearGradient id="paint12_linear_4002_939" x1="18.555" x2="13.805" y1="23.935" y2="27.279" gradientUnits="userSpaceOnUse">
      <stop stop-color="#47A1FF"></stop>
      <stop offset="1" stop-color="#3F83F1"></stop>
    </linearGradient>
    <linearGradient id="paint13_linear_4002_939" x1="15.992" x2="15.992" y1="22.826" y2="24.169" gradientUnits="userSpaceOnUse">
      <stop stop-color="#40A0F8"></stop>
      <stop offset="1" stop-color="#4392F9" stop-opacity="0"></stop>
    </linearGradient>
    <linearGradient id="paint15_linear_4002_939" x1="14.773" x2="20.117" y1="19.029" y2="17.122" gradientUnits="userSpaceOnUse">
      <stop stop-color="#CE1F66"></stop>
      <stop offset="1" stop-color="#FF3656"></stop>
    </linearGradient>
    <linearGradient id="paint22_linear_4002_939" x1="11.257" x2="10.614" y1="10.989" y2="10.989" gradientUnits="userSpaceOnUse">
      <stop stop-color="#BA7C6B"></stop>
      <stop offset="1" stop-color="#BE8474"></stop>
    </linearGradient>
    <linearGradient id="paint23_linear_4002_939" x1="21.896" x2="21.074" y1="9.614" y2="12.16" gradientUnits="userSpaceOnUse">
      <stop stop-color="#FBD3BD"></stop>
      <stop offset="1" stop-color="#F0B8A4"></stop>
    </linearGradient>
    <linearGradient id="paint27_linear_4002_939" x1="20.073" x2="12.408" y1="11.101" y2="12.243" gradientUnits="userSpaceOnUse">
      <stop stop-color="#FFDABF"></stop>
      <stop offset="1" stop-color="#EAAB97"></stop>
    </linearGradient>
    <linearGradient id="paint29_linear_4002_939" x1="10.359" x2="13.73" y1="12.633" y2="12.748" gradientUnits="userSpaceOnUse">
      <stop stop-color="#A58787"></stop>
      <stop offset="1" stop-color="#DEAD9D" stop-opacity="0"></stop>
    </linearGradient>
    <linearGradient id="paint30_linear_4002_939" x1="10.607" x2="12.495" y1="13.806" y2="13.739" gradientUnits="userSpaceOnUse">
      <stop stop-color="#E8AD97"></stop>
      <stop offset="1" stop-color="#E8AD97" stop-opacity="0"></stop>
    </linearGradient>
    <linearGradient id="paint33_linear_4002_939" x1="20.511" x2="13.036" y1="11.073" y2="11.073" gradientUnits="userSpaceOnUse">
      <stop stop-color="#FF1781"></stop>
      <stop offset="1" stop-color="#C31251"></stop>
    </linearGradient>
    <linearGradient id="paint34_linear_4002_939" x1="10.907" x2="12.374" y1="10.758" y2="10.758" gradientUnits="userSpaceOnUse">
      <stop stop-color="#AB2D46"></stop>
      <stop offset="1" stop-color="#BA3950" stop-opacity="0"></stop>
    </linearGradient>
    <linearGradient id="paint35_linear_4002_939" x1="15.489" x2="23.663" y1="8.105" y2="5.178" gradientUnits="userSpaceOnUse">
      <stop stop-color="#FFDEC4"></stop>
      <stop offset="1" stop-color="#FFDEC4" stop-opacity="0"></stop>
    </linearGradient>
    <linearGradient id="paint41_linear_4002_939" x1="14.982" x2="15.418" y1="14.452" y2="13.762" gradientUnits="userSpaceOnUse">
      <stop stop-color="#F6BFAF"></stop>
      <stop offset=".663" stop-color="#F6BFAF" stop-opacity="0"></stop>
    </linearGradient>
    <linearGradient id="paint44_linear_4002_939" x1="18.99" x2="18.675" y1="10.079" y2="10.273" gradientUnits="userSpaceOnUse">
      <stop stop-color="#B4948D"></stop>
      <stop offset="1" stop-color="#B4948D" stop-opacity="0"></stop>
    </linearGradient>
    <linearGradient id="paint46_linear_4002_939" x1="14.577" x2="14.262" y1="10.079" y2="10.273" gradientUnits="userSpaceOnUse">
      <stop stop-color="#B4948D"></stop>
      <stop offset="1" stop-color="#B4948D" stop-opacity="0"></stop>
    </linearGradient>
    <linearGradient id="paint48_linear_4002_939" x1="11.343" x2="11.343" y1="5.781" y2="7.946" gradientUnits="userSpaceOnUse">
      <stop stop-color="#3C393A"></stop>
      <stop offset="1" stop-color="#3C393A" stop-opacity="0"></stop>
    </linearGradient>
  </defs>
</svg>
